<?xml version="1.0" encoding="UTF-8" standalone="no"?>
<!-- Created with Inkscape (http://www.inkscape.org/) -->

<svg
   xmlns:dc="http://purl.org/dc/elements/1.1/"
   xmlns:cc="http://creativecommons.org/ns#"
   xmlns:rdf="http://www.w3.org/1999/02/22-rdf-syntax-ns#"
   xmlns:svg="http://www.w3.org/2000/svg"
   xmlns="http://www.w3.org/2000/svg"
   xmlns:sodipodi="http://sodipodi.sourceforge.net/DTD/sodipodi-0.dtd"
   xmlns:inkscape="http://www.inkscape.org/namespaces/inkscape"
   version="1.1"
   viewBox="0 0 512 512"
   height="512"
   width="512"
   id="svg2"
   inkscape:version="0.91 r13725"
   sodipodi:docname="server.svg">
  <sodipodi:namedview
     pagecolor="#ffffff"
     bordercolor="#666666"
     borderopacity="1"
     objecttolerance="10"
     gridtolerance="10"
     guidetolerance="10"
     inkscape:pageopacity="0"
     inkscape:pageshadow="2"
     inkscape:window-width="1920"
     inkscape:window-height="1148"
     id="namedview11"
     showgrid="false"
     inkscape:zoom="0.4609375"
     inkscape:cx="256"
     inkscape:cy="256"
     inkscape:window-x="-8"
     inkscape:window-y="-8"
     inkscape:window-maximized="1"
     inkscape:current-layer="svg2" />
  <defs
     id="defs4">
    <linearGradient
       id="linearGradient5">
      <stop
         style="stop-color:#ffffff;stop-opacity:1;"
         offset="0"
         id="stop4205" />
    </linearGradient>
  </defs>
  <metadata
     id="metadata7">
    <rdf:RDF>
      <cc:Work
         rdf:about="">
        <dc:format>image/svg+xml</dc:format>
        <dc:type
           rdf:resource="http://purl.org/dc/dcmitype/StillImage" />
      </cc:Work>
    </rdf:RDF>
  </metadata>
  <g
     id="layer1"
     transform="translate(0,-540.36219)"
     style="fill:#ffffff;fill-opacity:1">
    <path
       style="fill:#ffffff;fill-opacity:1;fill-rule:evenodd;stroke:#000000;stroke-width:0.38337606;stroke-linecap:butt;stroke-linejoin:miter;stroke-miterlimit:4;stroke-dasharray:none;stroke-opacity:0"
       d="m 51.26741,540.4888 c -28.296248,0 -51.07572198,21.64049 -51.07572198,48.52099 l 0,220.37577 c 0,26.88054 22.77947398,48.521 51.07572198,48.521 l 58.63304,0 233.81605,193.84304 -75.71646,-193.84304 192.73255,0 c 28.29626,0 51.07572,-21.64046 51.07572,-48.521 l 0,-220.37577 c 0,-26.8805 -22.77946,-48.52099 -51.07572,-48.52099 z m 13.880268,41.7133 381.704642,0 c 13.93233,0 25.14853,8.97537 25.14853,20.12354 l 0,13.0919 c 0,11.14817 -11.2162,20.12093 -25.14853,20.12093 l -381.704642,0 c -13.932322,0 -25.14854,-8.97276 -25.14854,-20.12093 l 0,-13.0919 c 0,-11.14817 11.216218,-20.12354 25.14854,-20.12354 z m 0,92.7683 381.704642,0 c 13.93233,0 25.14853,8.97536 25.14853,20.12353 l 0,13.08927 c 0,11.14819 -11.2162,20.12356 -25.14853,20.12356 l -381.704642,0 c -13.932322,0 -25.14854,-8.97537 -25.14854,-20.12356 l 0,-13.08927 c 0,-11.14817 11.216218,-20.12353 25.14854,-20.12353 z m 0,92.00522 137.894142,0 c 13.93234,0 25.14855,12.24637 25.14855,23.39454 l 0,9.81826 c 0,11.14819 -11.21621,20.12355 -25.14855,20.12355 l -137.894142,0 c -13.932322,0 -25.14854,-8.97536 -25.14854,-20.12355 l 0,-9.81826 c 0,-11.14817 11.216218,-23.39454 25.14854,-23.39454 z"
       id="rect3350" />
  </g>
</svg>
