<?xml version="1.0" encoding="UTF-8" standalone="no"?>
<svg
   xmlns:dc="http://purl.org/dc/elements/1.1/"
   xmlns:cc="http://creativecommons.org/ns#"
   xmlns:rdf="http://www.w3.org/1999/02/22-rdf-syntax-ns#"
   xmlns:svg="http://www.w3.org/2000/svg"
   xmlns="http://www.w3.org/2000/svg"
   version="1.1"
   id="svg2"
   viewBox="0 0 102 102"
   height="102"
   width="102">
  <defs
     id="defs8" />
  <path
     style="fill:#ffffff"
     id="path4"
     d="m 87.59295,13.515625 c 1.030867,0.859375 1.546301,1.890625 1.37449,3.09375 L 76.425208,92.0625 c -0.171793,1.03125 -0.687246,1.71875 -1.718114,2.234375 -0.343623,0.34375 -0.859057,0.34375 -1.374491,0.34375 -0.515434,0 -0.859057,0 -1.202679,-0.171857 L 49.794441,85.359394 37.939453,99.796894 C 37.424019,100.65625 36.564961,101 35.534092,101 c -0.343622,0 -0.687245,0 -1.030868,-0.17187 -0.687245,-0.17188 -1.202679,-0.6875 -1.546302,-1.20313 -0.343623,-0.515625 -0.515435,-1.03125 -0.515435,-1.71875 l 0,-17.1875 L 74.878906,28.640625 22.304615,74.1875 2.8899255,66.109375 C 1.6872456,65.765625 1.1718114,64.90625 1,63.53125 1,62.15625 1.5154342,61.125 2.5463026,60.609375 L 84.328533,13.515625 C 84.672156,13.171875 85.187591,13 85.874836,13 c 0.687246,0 1.20268,0.171875 1.718114,0.515625 z" />
</svg>
